<svg width="20" height="20" viewBox="0 0 20 20" fill="none" xmlns="http://www.w3.org/2000/svg"><g clip-path="url(#clip0)"><path d="M18.915 8.606h-7.52v-7.52C11.395.744 10.93.001 10 .001c-.93 0-1.395.743-1.395 1.085v7.52h-7.52C.743 8.606 0 9.07 0 10c0 .93.743 1.395 1.085 1.395h7.52v7.52C8.605 19.258 9.07 20 10 20c.93 0 1.395-.743 1.395-1.085v-7.52h7.52C19.257 11.395 20 10.93 20 10c0-.93-.743-1.395-1.085-1.395z" fill="#6CB83D"/></g><defs><clipPath id="clip0"><path fill="#fff" d="M0 0h20v20H0z"/></clipPath></defs></svg>