<svg width="16" height="16" viewBox="0 0 16 16" fill="none" xmlns="http://www.w3.org/2000/svg"><g clip-path="url(#clip0)" fill="#6CB83D"><path d="M5.83 8.827c0-.2-.163-.363-.364-.363H4.2c-.2 0-.363.163-.363.363v1.267c0 .201.163.363.363.363h1.267a.363.363 0 00.364-.363V8.827zm3.167 0c0-.2-.163-.363-.363-.363H7.367c-.2 0-.363.163-.363.363v1.267c0 .201.162.363.363.363h1.267c.2 0 .363-.162.363-.363V8.827zm3.167 0c0-.2-.162-.363-.363-.363h-1.267c-.2 0-.363.163-.363.363v1.267c0 .201.163.363.363.363h1.267c.2 0 .363-.162.363-.363V8.827zM5.83 11.994c0-.2-.163-.363-.364-.363H4.2c-.2 0-.363.163-.363.363v1.267c0 .2.163.363.363.363h1.267a.363.363 0 00.364-.363v-1.267zm3.167 0c0-.2-.163-.363-.363-.363H7.367c-.2 0-.363.163-.363.363v1.267c0 .2.162.363.363.363h1.267c.2 0 .363-.162.363-.363v-1.267zm3.167 0c0-.2-.162-.363-.362-.363h-1.268c-.2 0-.363.163-.363.363v1.267c0 .2.163.363.363.363h1.268c.2 0 .362-.162.362-.363v-1.267z"/><path d="M14.43 1.781v1.936c0 .875-.71 1.58-1.584 1.58h-1a1.589 1.589 0 01-1.594-1.58V1.774H5.748v1.943c0 .875-.72 1.58-1.594 1.58h-1a1.58 1.58 0 01-1.584-1.58V1.78A1.44 1.44 0 00.177 3.214v11.343C.177 15.35.82 16 1.612 16h12.777c.79 0 1.434-.652 1.434-1.443V3.214a1.44 1.44 0 00-1.393-1.433zm-.464 12.07a.62.62 0 01-.62.62H2.627a.62.62 0 01-.62-.62V7.99a.62.62 0 01.62-.62h10.719a.62.62 0 01.62.62v5.86z"/><path d="M3.15 4.26h.99c.3 0 .543-.244.543-.544V.543c0-.3-.244-.543-.544-.543h-.988c-.3 0-.544.243-.544.543v3.173c0 .3.244.543.544.543zm8.684 0h.989c.3 0 .543-.244.543-.544V.543c0-.3-.244-.543-.543-.543h-.99c-.3 0-.543.243-.543.543v3.173c0 .3.244.543.544.543z"/></g><defs><clipPath id="clip0"><path fill="#fff" d="M0 0h16v16H0z"/></clipPath></defs></svg>