<svg width="12" height="12" viewBox="0 0 12 12" fill="none" xmlns="http://www.w3.org/2000/svg"><path d="M11.706 1.494A.963.963 0 0011 1.2H1a.963.963 0 00-.706.294A.963.963 0 000 2.2v7.6c0 .275.098.51.294.706A.963.963 0 001 10.8h10c.275 0 .51-.098.706-.294A.963.963 0 0012 9.8V2.2a.963.963 0 00-.294-.706zM11.2 9.8a.19.19 0 01-.06.14.193.193 0 01-.14.06H1a.192.192 0 01-.14-.06.192.192 0 01-.06-.14V6h10.4v3.8zm0-6.2H.8V2.2c0-.054.02-.1.06-.14A.186.186 0 011 2h10a.19.19 0 01.14.06c.04.04.06.086.06.14v1.4z" fill="#939393"/><path d="M3.2 8.4H1.6v.8h1.6v-.8zm3.2 0H4v.8h2.4v-.8z" fill="#939393"/></svg>