<svg width="13" height="13" viewBox="0 0 13 13" fill="none" xmlns="http://www.w3.org/2000/svg"><path d="M11.407 9.55l-1.401-1.401-2.554-2.554a3.501 3.501 0 00.681-2.074A3.524 3.524 0 004.613 0a3.525 3.525 0 00-3.521 3.52 3.526 3.526 0 003.52 3.522c.776 0 1.491-.255 2.074-.682l2.17 2.171L7.48 9.91a.541.541 0 10.767.766l1.377-1.378 1.018 1.018a.537.537 0 01.159.383c0 .145-.057.28-.16.383l-.994.994a.54.54 0 10.766.766l.995-.994c.306-.307.476-.715.476-1.15 0-.433-.17-.841-.476-1.148z" fill="url(#paint0_linear)"/><defs><linearGradient id="paint0_linear" x1="3" y1="3" x2="6.487" y2="13" gradientUnits="userSpaceOnUse"><stop stop-color="#0CD468"/><stop offset="1" stop-color="#0CD4D3"/></linearGradient></defs></svg>