<svg width="16" height="16" viewBox="0 0 16 16" fill="none" xmlns="http://www.w3.org/2000/svg"><g clip-path="url(#clip0)"><path d="M15.974 4.998C15.74 2.428 13.92.562 11.644.562c-1.517 0-2.906.817-3.688 2.125C7.182 1.362 5.849.562 4.356.562 2.08.562.26 2.427.027 4.998c-.018.113-.093.71.137 1.685.332 1.406 1.098 2.684 2.215 3.697l5.574 5.058 5.67-5.058c1.117-1.013 1.884-2.29 2.215-3.697.23-.974.155-1.571.137-1.685zm-11.05-1.95a2.465 2.465 0 00-2.462 2.461.307.307 0 11-.616 0 3.08 3.08 0 013.077-3.077.307.307 0 110 .616z" fill="#6CB83D"/></g><defs><clipPath id="clip0"><path fill="#fff" d="M0 0h16v16H0z"/></clipPath></defs></svg>