<svg width="13" height="13" viewBox="0 0 13 13" fill="none" xmlns="http://www.w3.org/2000/svg"><path d="M6.5 6.358c1.444 0 2.616-1.423 2.616-3.179C9.116 1.423 8.732 0 6.5 0 4.267 0 3.882 1.423 3.882 3.179c0 1.756 1.172 3.179 2.617 3.179z" fill="#6CB83D"/><path d="M1.556 11.211c0-.107 0-.03 0 0z" fill="url(#paint0_linear)"/><path d="M11.442 11.296c.002-.03 0-.204 0 0z" fill="url(#paint1_linear)"/><path d="M11.437 11.083c-.049-3.058-.448-3.93-3.505-4.481 0 0-.43.548-1.433.548-1.003 0-1.433-.548-1.433-.548-3.023.545-3.447 1.404-3.503 4.382-.004.243-.007.256-.007.227v.322S2.284 13 6.5 13s4.943-1.467 4.943-1.467v-.238a2.01 2.01 0 01-.005-.212z" fill="#6CB83D"/><defs><linearGradient id="paint0_linear" x1="1.556" y1="11.156" x2="1.556" y2="11.211" gradientUnits="userSpaceOnUse"><stop stop-color="#0CD468"/><stop offset="1" stop-color="#0CD4D4"/></linearGradient><linearGradient id="paint1_linear" x1="11.443" y1="11.198" x2="11.443" y2="11.296" gradientUnits="userSpaceOnUse"><stop stop-color="#0CD468"/><stop offset="1" stop-color="#0CD4D4"/></linearGradient></defs></svg>