<svg width="12" height="12" viewBox="0 0 12 12" fill="none" xmlns="http://www.w3.org/2000/svg"><path d="M11.39 4.852h0a.355.355 0 00.092-.37.355.355 0 00-.291-.245s0 0 0 0l-2.906-.422h0a.88.88 0 01-.662-.482s0 0 0 0 0 0 0 0L6.322.701h0A.355.355 0 006 .5a.355.355 0 00-.323.2h0l-1.3 2.633s0 0 0 0 0 0 0 0a.88.88 0 01-.662.482h0L.81 4.237h0a.355.355 0 00-.292.246.355.355 0 00.091.37h0l2.103 2.049h0a.88.88 0 01.253.779m8.426-2.829L.738 3.742a.855.855 0 00-.695.586.855.855 0 00.217.882l2.103 2.05a.38.38 0 01.11.336l-.497 2.893a.842.842 0 00.188.698.87.87 0 001.06.21m8.167-6.545l-2.103 2.05h0a.88.88 0 00-.253.779m2.356-2.829L9.637 7.26a.38.38 0 00-.11.336m-6.562.085l-.493-.085.493.084h0zm0 0l-.496 2.893h0c-.02.111.008.21.077.29v.001a.37.37 0 00.446.09l.233.442m0 0l2.598-1.367a.389.389 0 01.354 0l2.599 1.367a.863.863 0 001.248-.907l-.496-2.894m-6.303 3.8l-.233-.442 2.599-1.366h0a.889.889 0 01.817-.001h.002l2.598 1.367h0c.057.03.112.043.168.043a.363.363 0 00.278-.132h0a.342.342 0 00.077-.29h0L9.035 7.68m0 0l.493-.085m-.493.085h0l.493-.085" fill="#fff" stroke="#E0CA00"/></svg>