<svg width="21" height="21" viewBox="0 0 21 21" fill="none" xmlns="http://www.w3.org/2000/svg"><path d="M.37 10.126l4.84 1.806 1.873 6.023a.57.57 0 00.904.272l2.698-2.199a.805.805 0 01.98-.027l4.865 3.532a.57.57 0 00.894-.345l3.564-17.142a.57.57 0 00-.764-.648L.365 9.058a.57.57 0 00.006 1.068zm6.41.844l9.458-5.824c.17-.105.345.125.199.26l-7.805 7.255a1.618 1.618 0 00-.502.968l-.265 1.97c-.036.264-.405.29-.478.035l-1.022-3.593a.952.952 0 01.416-1.07z" fill="url(#paint0_linear)"/><defs><linearGradient id="paint0_linear" x1="17.5" y1="1" x2="10" y2="20" gradientUnits="userSpaceOnUse"><stop stop-color="#26D97A"/><stop offset="1" stop-color="#0BD4D2"/></linearGradient></defs></svg>