<svg width="22" height="22" viewBox="0 0 22 22" fill="none" xmlns="http://www.w3.org/2000/svg"><g clip-path="url(#clip0)"><path d="M22 4.179a9.014 9.014 0 01-2.591.71 4.532 4.532 0 001.983-2.495 9.098 9.098 0 01-2.867 1.096 4.513 4.513 0 00-7.69 4.115 12.813 12.813 0 01-9.302-4.716 4.472 4.472 0 00-.61 2.269A4.51 4.51 0 002.93 8.913a4.513 4.513 0 01-2.045-.566v.056a4.518 4.518 0 003.62 4.426 4.573 4.573 0 01-1.19.158c-.29 0-.572-.03-.849-.084a4.515 4.515 0 004.215 3.134 9.055 9.055 0 01-5.605 1.93c-.364 0-.723-.023-1.076-.063a12.757 12.757 0 006.918 2.03c8.302 0 12.84-6.876 12.84-12.84l-.015-.584A9.013 9.013 0 0022 4.18z" fill="url(#paint0_linear)"/></g><defs><linearGradient id="paint0_linear" x1="4" y1="-.5" x2="17" y2="25.5" gradientUnits="userSpaceOnUse"><stop stop-color="#26D97A"/><stop offset="1" stop-color="#0BD4D2"/></linearGradient><clipPath id="clip0"><path fill="#fff" d="M0 0h22v22H0z"/></clipPath></defs></svg>