<svg width="26" height="27" viewBox="0 0 26 27" fill="none" xmlns="http://www.w3.org/2000/svg"><g clip-path="url(#clip0)"><path d="M25.862 19.71a1.886 1.886 0 00-.088-.176c-.451-.843-1.313-1.879-2.585-3.107l-.027-.028-.014-.014-.014-.014h-.013c-.578-.571-.943-.956-1.096-1.153-.28-.375-.343-.754-.19-1.139.108-.29.514-.904 1.218-1.84.37-.498.663-.896.88-1.196 1.561-2.155 2.238-3.533 2.03-4.133l-.08-.14c-.054-.084-.194-.162-.42-.232-.226-.07-.514-.082-.866-.035l-3.899.028a.488.488 0 00-.27.007l-.177.042-.068.036-.053.042a.613.613 0 00-.15.147.974.974 0 00-.134.246 23.366 23.366 0 01-1.45 3.163 29.39 29.39 0 01-.92 1.511c-.28.427-.514.74-.703.942a4.94 4.94 0 01-.515.485c-.153.122-.27.174-.352.155a9.408 9.408 0 01-.23-.056.923.923 0 01-.305-.345 1.585 1.585 0 01-.155-.548 6.23 6.23 0 01-.048-.57c-.004-.159-.002-.384.007-.674.01-.29.014-.488.014-.59 0-.357.006-.743.02-1.16.014-.418.024-.748.034-.991.009-.244.013-.502.013-.774a3.43 3.43 0 00-.047-.64 2.249 2.249 0 00-.142-.45.75.75 0 00-.277-.337 1.533 1.533 0 00-.454-.19c-.478-.112-1.087-.173-1.828-.182-1.678-.019-2.757.094-3.235.337-.19.103-.361.244-.514.422-.163.206-.185.319-.068.337.541.085.925.286 1.15.605l.082.169c.063.121.126.337.19.646a6.8 6.8 0 01.121 1.026c.045.684.045 1.27 0 1.757-.045.488-.088.867-.129 1.14-.04.27-.101.491-.182.66a2.817 2.817 0 01-.163.309.237.237 0 01-.067.07.98.98 0 01-.366.07c-.126 0-.28-.065-.46-.196a3.3 3.3 0 01-.562-.541 7.24 7.24 0 01-.657-.963c-.243-.413-.496-.9-.758-1.462l-.216-.408c-.135-.262-.32-.644-.555-1.146a22.526 22.526 0 01-.623-1.455.924.924 0 00-.325-.45l-.067-.042a.916.916 0 00-.217-.12 1.396 1.396 0 00-.311-.09l-3.71.027c-.378 0-.636.09-.771.267l-.054.085A.47.47 0 000 7.079c0 .103.027.23.081.38a47.198 47.198 0 001.767 3.823c.636 1.228 1.189 2.217 1.658 2.966.47.75.948 1.458 1.435 2.123.487.665.81 1.092.968 1.279.158.188.282.328.372.422l.339.337a8.1 8.1 0 00.954.808c.42.314.884.624 1.394.928.51.305 1.104.553 1.78.745a5.94 5.94 0 001.977.232h1.557c.316-.028.555-.131.717-.309l.054-.07a.951.951 0 00.102-.26c.031-.117.047-.246.047-.387-.01-.403.02-.766.088-1.09.067-.322.144-.566.23-.73a1.792 1.792 0 01.522-.619.873.873 0 01.107-.049c.217-.075.472-.002.766.218.293.22.568.492.826.816.257.323.566.686.927 1.09.36.402.677.702.947.899l.27.168c.182.113.416.216.705.31.288.094.541.117.758.07l3.465-.056c.343 0 .61-.059.799-.176.19-.117.302-.246.339-.386.036-.14.038-.3.006-.479a1.818 1.818 0 00-.095-.372z" fill="url(#paint0_linear)"/></g><defs><linearGradient id="paint0_linear" x1="2.5" y1="9" x2="26" y2="26" gradientUnits="userSpaceOnUse"><stop stop-color="#26D97A"/><stop offset="1" stop-color="#0BD4D2"/></linearGradient><clipPath id="clip0"><path fill="#fff" d="M0 0h26v27H0z"/></clipPath></defs></svg>