<svg width="37" height="37" viewBox="0 0 37 37" fill="none" xmlns="http://www.w3.org/2000/svg"><path d="M36.806 17.752L29.098 3.876a1.541 1.541 0 00-1.348-.792H9.25a1.542 1.542 0 00-1.348.792L.194 17.751a1.542 1.542 0 000 1.498l7.708 13.875a1.542 1.542 0 001.348.793h18.5a1.541 1.541 0 001.348-.793l7.708-13.875a1.542 1.542 0 000-1.497zm-9.963 13.082H10.157L3.305 18.5l6.852-12.333h16.686L33.695 18.5l-6.852 12.334z" fill="#FF1F00"/><path d="M11.064 7.708L5.068 18.5l5.995 10.792h14.872L31.932 18.5 25.937 7.71H11.064zm8.978 18.5h-3.084v-3.083h3.084v3.084zm0-6.166h-3.084v-9.25h3.084v9.25z" fill="#FF1F00"/></svg>