<svg width="16" height="16" viewBox="0 0 16 16" fill="none" xmlns="http://www.w3.org/2000/svg">
<g clip-path="url(#clip0)">
<path d="M5.82963 8.82716C5.82963 8.62673 5.66705 8.46436 5.46646 8.46436H4.19915C3.99879 8.46436 3.83618 8.62673 3.83618 8.82716V10.0943C3.83618 10.295 3.99879 10.4574 4.19915 10.4574H5.46646C5.66705 10.4574 5.82963 10.295 5.82963 10.0943V8.82716Z" fill="#6CB83D"/>
<path d="M8.99679 8.82716C8.99679 8.62673 8.83418 8.46436 8.63398 8.46436H7.36651C7.16615 8.46436 7.00354 8.62673 7.00354 8.82716V10.0943C7.00354 10.295 7.16615 10.4574 7.36651 10.4574H8.63398C8.83418 10.4574 8.99679 10.295 8.99679 10.0943V8.82716Z" fill="#6CB83D"/>
<path d="M12.1643 8.82716C12.1643 8.62673 12.0017 8.46436 11.8014 8.46436H10.5341C10.3335 8.46436 10.1709 8.62673 10.1709 8.82716V10.0943C10.1709 10.295 10.3335 10.4574 10.5341 10.4574H11.8014C12.0017 10.4574 12.1643 10.295 12.1643 10.0943V8.82716Z" fill="#6CB83D"/>
<path d="M5.82963 11.9943C5.82963 11.7936 5.66705 11.6313 5.46646 11.6313H4.19915C3.99879 11.6313 3.83618 11.7936 3.83618 11.9943V13.2613C3.83618 13.4618 3.99879 13.6242 4.19915 13.6242H5.46646C5.66705 13.6242 5.82963 13.4618 5.82963 13.2613V11.9943Z" fill="#6CB83D"/>
<path d="M8.99679 11.9943C8.99679 11.7936 8.83418 11.6313 8.63398 11.6313H7.36651C7.16615 11.6313 7.00354 11.7936 7.00354 11.9943V13.2613C7.00354 13.4618 7.16615 13.6242 7.36651 13.6242H8.63398C8.83418 13.6242 8.99679 13.4618 8.99679 13.2613V11.9943Z" fill="#6CB83D"/>
<path d="M12.1643 11.9943C12.1643 11.7936 12.0017 11.6313 11.8015 11.6313H10.5341C10.3335 11.6313 10.1709 11.7936 10.1709 11.9943V13.2613C10.1709 13.4618 10.3335 13.6242 10.5341 13.6242H11.8015C12.0017 13.6242 12.1643 13.4618 12.1643 13.2613V11.9943Z" fill="#6CB83D"/>
<path d="M14.4302 1.78136V3.71683C14.4302 4.59163 13.7205 5.2966 12.8458 5.2966H11.8464C10.9716 5.2966 10.2525 4.59163 10.2525 3.71683V1.77441H5.74772V3.71683C5.74772 4.59163 5.02867 5.2966 4.15406 5.2966H3.1544C2.27975 5.2966 1.57011 4.59163 1.57011 3.71683V1.78136C0.805655 1.8044 0.17749 2.43696 0.17749 3.21446V14.5572C0.17749 15.3493 0.81952 15.9999 1.61163 15.9999H14.3886C15.1796 15.9999 15.8228 15.348 15.8228 14.5572V3.21446C15.8228 2.43696 15.1946 1.8044 14.4302 1.78136ZM13.966 13.8508C13.966 14.1932 13.6884 14.4709 13.346 14.4709H2.62699C2.28454 14.4709 2.00699 14.1932 2.00699 13.8508V7.99192C2.00699 7.64947 2.28451 7.37175 2.62699 7.37175H13.3459C13.6884 7.37175 13.966 7.64947 13.966 7.99192L13.966 13.8508Z" fill="#6CB83D"/>
<path d="M3.15067 4.25917H4.13928C4.43935 4.25917 4.68265 4.01622 4.68265 3.71615V0.543208C4.68265 0.243105 4.43935 0 4.13928 0H3.15067C2.85057 0 2.6073 0.243105 2.6073 0.543208V3.71615C2.6073 4.01622 2.85057 4.25917 3.15067 4.25917Z" fill="#6CB83D"/>
<path d="M11.8339 4.25917H12.8225C13.1224 4.25917 13.3657 4.01622 13.3657 3.71615V0.543208C13.3657 0.243105 13.1224 0 12.8225 0H11.8339C11.5338 0 11.2905 0.243105 11.2905 0.543208V3.71615C11.2905 4.01622 11.5338 4.25917 11.8339 4.25917Z" fill="#6CB83D"/>
</g>
<defs>
<clipPath id="clip0">
<rect width="16" height="16" fill="white"/>
</clipPath>
</defs>
</svg>
