<svg width="12" height="12" viewBox="0 0 12 12" fill="none" xmlns="http://www.w3.org/2000/svg">
<path d="M11.7062 1.4939C11.5104 1.29809 11.275 1.2002 11 1.2002H0.999993C0.725001 1.2002 0.489653 1.29807 0.293709 1.4939C0.0978737 1.68976 0 1.92511 0 2.20012V9.80001C0 10.0751 0.0978737 10.3105 0.293709 10.5063C0.489653 10.7021 0.725001 10.8 0.999993 10.8H11C11.275 10.8 11.5103 10.7021 11.7062 10.5063C11.902 10.3105 12 10.0751 12 9.80001V2.20012C12 1.92511 11.902 1.68976 11.7062 1.4939ZM11.1999 9.80016C11.1999 9.85441 11.1801 9.90114 11.1406 9.94085C11.101 9.98026 11.0541 10 11 10H0.999993C0.945857 10 0.898967 9.98026 0.859388 9.9407C0.819831 9.90101 0.80002 9.85425 0.80002 9.80001V6.00012H11.1999V9.80016H11.1999ZM11.1999 3.60004H0.799998V2.20003C0.799998 2.14588 0.819744 2.0991 0.859366 2.05943C0.898967 2.01996 0.945857 2.00015 0.999971 2.00015H11C11.0541 2.00015 11.101 2.01987 11.1405 2.05943C11.1801 2.0991 11.1999 2.14588 11.1999 2.20003V3.60004H11.1999Z" fill="#939393"/>
<path d="M3.19958 8.40039H1.59961V9.20045H3.19958V8.40039Z" fill="#939393"/>
<path d="M6.39997 8.40039H4V9.20045H6.39997V8.40039Z" fill="#939393"/>
</svg>
