<svg width="13" height="13" viewBox="0 0 13 13" fill="none" xmlns="http://www.w3.org/2000/svg">
<path d="M11.4067 9.54906L10.006 8.1488L7.45205 5.59486C7.87833 5.01207 8.13343 4.29647 8.13343 3.52087C8.13343 1.57948 6.55396 0 4.61266 0C2.67127 0 1.0918 1.57948 1.0918 3.52087C1.0918 5.46216 2.67127 7.04163 4.61266 7.04163C5.38827 7.04163 6.10327 6.78654 6.68557 6.36025L8.85657 8.53125L7.47913 9.90869C7.26737 10.1205 7.26737 10.4628 7.47913 10.6746C7.58525 10.7802 7.72401 10.8334 7.86266 10.8334C8.00132 10.8334 8.13998 10.7802 8.24561 10.6746L9.62305 9.29713L10.6409 10.3149C10.7432 10.4168 10.7995 10.5528 10.7995 10.6979C10.7995 10.8431 10.7432 10.9785 10.6409 11.0808L9.64635 12.0754C9.4345 12.2872 9.4345 12.6295 9.64635 12.8413C9.75198 12.9469 9.89064 13 10.0293 13C10.168 13 10.3066 12.9469 10.4122 12.8413L11.4067 11.8473C11.7133 11.5402 11.8829 11.1323 11.8829 10.6979C11.8829 10.2635 11.7133 9.85563 11.4067 9.54906Z" fill="url(#paint0_linear)"/>
<defs>
<linearGradient id="paint0_linear" x1="3" y1="3" x2="6.48735" y2="13" gradientUnits="userSpaceOnUse">
<stop stop-color="#0CD468"/>
<stop offset="1" stop-color="#0CD4D3"/>
</linearGradient>
</defs>
</svg>
