<svg width="16" height="16" viewBox="0 0 16 16" fill="none" xmlns="http://www.w3.org/2000/svg">
<g clip-path="url(#clip0)">
<path d="M15.9737 4.99796C15.7402 2.42735 13.9207 0.562319 11.6436 0.562319C10.1266 0.562319 8.7376 1.37867 7.95601 2.68706C7.18151 1.36175 5.84943 0.562012 4.35673 0.562012C2.07998 0.562012 0.260186 2.42704 0.0269421 4.99765C0.00847948 5.1112 -0.0672172 5.70877 0.16295 6.68329C0.494661 8.08891 1.26086 9.36744 2.37815 10.3798L7.95232 15.4383L13.6222 10.3801C14.7395 9.36744 15.5057 8.08921 15.8374 6.68329C16.0676 5.70908 15.9919 5.11151 15.9737 4.99796ZM4.92322 3.04769C3.56592 3.04769 2.46154 4.15206 2.46154 5.50937C2.46154 5.67954 2.324 5.81708 2.15383 5.81708C1.98367 5.81708 1.84612 5.67954 1.84612 5.50937C1.84612 3.81266 3.22651 2.43227 4.92322 2.43227C5.09339 2.43227 5.23093 2.56982 5.23093 2.73998C5.23093 2.91015 5.09308 3.04769 4.92322 3.04769Z" fill="#6CB83D"/>
</g>
<defs>
<clipPath id="clip0">
<rect width="16" height="16" fill="white"/>
</clipPath>
</defs>
</svg>
