<svg width="13" height="13" viewBox="0 0 13 13" fill="none" xmlns="http://www.w3.org/2000/svg">
<path d="M6.49911 6.35785C7.94448 6.35785 9.1163 4.93461 9.1163 3.17895C9.1163 1.42324 8.73158 0 6.49911 0C4.26664 0 3.88184 1.42324 3.88184 3.17895C3.88184 4.93461 5.05366 6.35785 6.49911 6.35785Z" fill="#6CB83D"/>
<path d="M1.55618 11.2113C1.55573 11.1042 1.55529 11.1811 1.55618 11.2113V11.2113Z" fill="url(#paint0_linear)"/>
<path d="M11.4424 11.2955C11.4438 11.2662 11.4429 11.0922 11.4424 11.2955V11.2955Z" fill="url(#paint1_linear)"/>
<path d="M11.4367 11.0831C11.3882 8.02469 10.9888 7.15321 7.93217 6.60156C7.93217 6.60156 7.5019 7.14983 6.49904 7.14983C5.49619 7.14983 5.06585 6.60156 5.06585 6.60156C2.04261 7.14719 1.61888 8.00575 1.56317 10.9838C1.5586 11.2269 1.55648 11.2397 1.55566 11.2115C1.55585 11.2644 1.55607 11.3622 1.55607 11.5328C1.55607 11.5328 2.28378 12.9998 6.49904 12.9998C10.7142 12.9998 11.442 11.5328 11.442 11.5328C11.442 11.4232 11.4421 11.347 11.4422 11.2951C11.4414 11.3126 11.4398 11.2787 11.4367 11.0831Z" fill="#6CB83D"/>
<defs>
<linearGradient id="paint0_linear" x1="1.55592" y1="11.1562" x2="1.55592" y2="11.2113" gradientUnits="userSpaceOnUse">
<stop stop-color="#0CD468"/>
<stop offset="1" stop-color="#0CD4D4"/>
</linearGradient>
<linearGradient id="paint1_linear" x1="11.4428" y1="11.1982" x2="11.4428" y2="11.2955" gradientUnits="userSpaceOnUse">
<stop stop-color="#0CD468"/>
<stop offset="1" stop-color="#0CD4D4"/>
</linearGradient>
</defs>
</svg>
