<svg width="13" height="13" viewBox="0 0 13 13" fill="none" xmlns="http://www.w3.org/2000/svg">
<path d="M6.50008 6.35785C7.94546 6.35785 9.11728 4.93461 9.11728 3.17895C9.11728 1.42324 8.73255 0 6.50008 0C4.26761 0 3.88281 1.42324 3.88281 3.17895C3.88281 4.93461 5.05463 6.35785 6.50008 6.35785Z" fill="#0CD468"/>
<path d="M1.55667 11.2113C1.55622 11.1042 1.55578 11.1811 1.55667 11.2113V11.2113Z" fill="url(#paint0_linear)"/>
<path d="M11.4434 11.2955C11.4448 11.2662 11.4438 11.0922 11.4434 11.2955V11.2955Z" fill="url(#paint1_linear)"/>
<path d="M11.4376 11.0831C11.3892 8.02469 10.9897 7.15321 7.93314 6.60156C7.93314 6.60156 7.50288 7.14983 6.50002 7.14983C5.49716 7.14983 5.06683 6.60156 5.06683 6.60156C2.04358 7.14719 1.61986 8.00575 1.56414 10.9838C1.55957 11.2269 1.55746 11.2397 1.55664 11.2115C1.55683 11.2644 1.55705 11.3622 1.55705 11.5328C1.55705 11.5328 2.28475 12.9998 6.50002 12.9998C10.7152 12.9998 11.443 11.5328 11.443 11.5328C11.443 11.4232 11.4431 11.347 11.4432 11.2951C11.4424 11.3126 11.4407 11.2787 11.4376 11.0831Z" fill="url(#paint2_linear)"/>
<defs>
<linearGradient id="paint0_linear" x1="1.55641" y1="11.1562" x2="1.55641" y2="11.2113" gradientUnits="userSpaceOnUse">
<stop stop-color="#0CD468"/>
<stop offset="1" stop-color="#0CD4D4"/>
</linearGradient>
<linearGradient id="paint1_linear" x1="11.4437" y1="11.1982" x2="11.4437" y2="11.2955" gradientUnits="userSpaceOnUse">
<stop stop-color="#0CD468"/>
<stop offset="1" stop-color="#0CD4D4"/>
</linearGradient>
<linearGradient id="paint2_linear" x1="6.49991" y1="6.60156" x2="6.49991" y2="12.9998" gradientUnits="userSpaceOnUse">
<stop stop-color="#0CD468"/>
<stop offset="1" stop-color="#0CD4D4"/>
</linearGradient>
</defs>
</svg>
