<svg width="15" height="15" viewBox="0 0 15 15" fill="none" xmlns="http://www.w3.org/2000/svg">
<path d="M11.2509 5.625C11.2509 2.51868 8.73237 0 5.62598 0C2.51965 0 0.000976562 2.51868 0.000976562 5.625C0.000976562 8.73133 2.51965 11.2499 5.62598 11.2499C8.73237 11.2499 11.2509 8.73133 11.2509 5.625ZM5.62598 9.84359C3.29962 9.84359 1.40727 7.95139 1.40727 5.62503C1.40727 3.29868 3.29962 1.40632 5.62598 1.40632C7.95228 1.40632 9.84479 3.29868 9.84479 5.62503C9.84479 7.95139 7.95228 9.84359 5.62598 9.84359Z" fill="white"/>
<path d="M14.5877 12.5997L11.1465 9.1582C10.6337 9.95564 9.95515 10.6339 9.15771 11.1466L12.5992 14.5881C13.1486 15.1374 14.0394 15.1374 14.5876 14.5881C15.1371 14.0398 15.1371 13.149 14.5877 12.5997Z" fill="white"/>
</svg>
