<svg width="12" height="12" viewBox="0 0 12 12" fill="none" xmlns="http://www.w3.org/2000/svg">
<path d="M11.3907 4.85215L11.3907 4.8521C11.4905 4.75486 11.5251 4.61569 11.4818 4.48236C11.4385 4.34951 11.3291 4.25726 11.1906 4.23706C11.1906 4.23705 11.1905 4.23704 11.1905 4.23703L8.28504 3.81487L8.28489 3.81485C7.99871 3.77317 7.75085 3.59356 7.62261 3.33346C7.6226 3.33344 7.62259 3.33343 7.62259 3.33341C7.62254 3.33332 7.62249 3.33322 7.62245 3.33313L6.32361 0.700862L6.32355 0.700742C6.26204 0.575996 6.14005 0.5 6.00019 0.5C5.86065 0.5 5.73862 0.575924 5.67707 0.700742L5.677 0.700879L4.37794 3.33337C4.37789 3.33347 4.37783 3.33357 4.37778 3.33368C4.37778 3.33369 4.37777 3.3337 4.37776 3.33372C4.24933 3.5942 4.00099 3.77347 3.71526 3.81509L3.7151 3.81511L0.809532 4.2373L0.809366 4.23732C0.671407 4.25732 0.561597 4.34966 0.518252 4.48282C0.475105 4.61608 0.509679 4.75516 0.609393 4.85234L0.609425 4.85237L2.71171 6.90155L2.71192 6.90175C2.91857 7.10342 3.01424 7.39453 2.96505 7.68069M11.3907 4.85215L0.737635 3.74249C0.411084 3.78983 0.144844 4.01426 0.0427215 4.32831C-0.0591608 4.64237 0.0242193 4.98022 0.260423 5.21041L2.36271 7.25959C2.45233 7.34706 2.49342 7.47297 2.47228 7.596L1.97632 10.4895C1.93235 10.7443 1.99915 10.992 2.16399 11.1873C2.42013 11.4918 2.86731 11.5845 3.22486 11.3966M11.3907 4.85215L9.28841 6.90157L9.28823 6.90175C9.0816 7.10339 8.98594 7.39418 9.03506 7.68053M11.3907 4.85215L9.63744 7.25959C9.54781 7.34706 9.50672 7.47273 9.52787 7.596M2.96505 7.68069L2.4723 7.596L2.96509 7.68046L2.96505 7.68069ZM2.96505 7.68069L2.46914 10.574L2.46903 10.5746C2.44992 10.6853 2.47748 10.7836 2.54613 10.8649L2.54658 10.8654C2.65364 10.9927 2.84556 11.0311 2.99217 10.9541L3.22486 11.3966M3.22486 11.3966L5.82334 10.0304C5.93195 9.97341 6.06867 9.97389 6.17704 10.0304L8.77576 11.3966C8.90215 11.4632 9.03696 11.4968 9.17608 11.4968C9.43007 11.4968 9.67084 11.3839 9.8364 11.1873C10.0015 10.992 10.068 10.7438 10.0241 10.4895L9.52787 7.596M3.22486 11.3966L2.99226 10.954L5.59064 9.5878L5.59115 9.58754C5.84627 9.45377 6.15604 9.45561 6.40809 9.58694L6.40972 9.58779L9.00844 10.9541L9.00874 10.9542C9.06497 10.9838 9.12 10.9968 9.17608 10.9968C9.28041 10.9968 9.382 10.9507 9.45398 10.8652L9.45449 10.8646C9.52291 10.7837 9.55048 10.6852 9.53138 10.5748L9.53125 10.5741L9.03506 7.68053M9.03506 7.68053L9.52787 7.596M9.03506 7.68053L9.03506 7.6805L9.52787 7.596" fill="white" stroke="#E0CA00"/>
</svg>
