<svg width="12" height="12" viewBox="0 0 12 12" fill="none" xmlns="http://www.w3.org/2000/svg">
<path d="M11.7397 5.21017C11.9759 4.97998 12.0593 4.64213 11.9574 4.32807C11.8553 4.01402 11.5893 3.78983 11.2625 3.74225L8.35694 3.32006C8.23319 3.30204 8.12626 3.22443 8.071 3.11222L6.772 0.479616C6.62614 0.183821 6.33011 0 6.00019 0C5.67052 0 5.37448 0.183821 5.22863 0.479616L3.92939 3.11246C3.87412 3.22467 3.76695 3.30228 3.6432 3.3203L0.737635 3.74249C0.411084 3.78983 0.144844 4.01426 0.0427215 4.32831C-0.0591608 4.64237 0.0242193 4.98022 0.260423 5.21041L2.36271 7.25959C2.45233 7.34706 2.49342 7.47297 2.47228 7.596L1.97632 10.4895C1.93235 10.7443 1.99915 10.992 2.16399 11.1873C2.42013 11.4918 2.86731 11.5845 3.22486 11.3966L5.82334 10.0304C5.93195 9.97341 6.06867 9.97389 6.17704 10.0304L8.77576 11.3966C8.90215 11.4632 9.03696 11.4968 9.17608 11.4968C9.43007 11.4968 9.67084 11.3839 9.8364 11.1873C10.0015 10.992 10.068 10.7438 10.0241 10.4895L9.52787 7.596C9.50672 7.47273 9.54781 7.34706 9.63744 7.25959L11.7397 5.21017Z" fill="#E0CA00"/>
</svg>
