<svg width="21" height="21" viewBox="0 0 21 21" fill="none" xmlns="http://www.w3.org/2000/svg">
<path d="M0.370922 10.1255L5.20974 11.9315L7.08266 17.9548C7.2025 18.3406 7.67423 18.4832 7.98734 18.2272L10.6846 16.0283C10.9673 15.798 11.37 15.7865 11.6655 16.001L16.5304 19.5329C16.8653 19.7764 17.3398 19.5929 17.4238 19.1881L20.9876 2.04576C21.0793 1.60364 20.6449 1.23481 20.2239 1.39763L0.365252 9.0585C-0.124818 9.2475 -0.120548 9.94134 0.370922 10.1255ZM6.78082 10.9701L16.2377 5.14564C16.4076 5.04127 16.5825 5.27108 16.4366 5.40646L8.6319 12.6613C8.35757 12.9166 8.18061 13.2584 8.13049 13.6293L7.86463 15.5995C7.82942 15.8626 7.45989 15.8887 7.3873 15.6341L6.36481 12.0413C6.2477 11.6316 6.41836 11.1939 6.78082 10.9701Z" fill="url(#paint0_linear)"/>
<defs>
<linearGradient id="paint0_linear" x1="17.5" y1="1.00049" x2="10" y2="20.0005" gradientUnits="userSpaceOnUse">
<stop stop-color="#26D97A"/>
<stop offset="1" stop-color="#0BD4D2"/>
</linearGradient>
</defs>
</svg>
