<svg width="22" height="22" viewBox="0 0 22 22" fill="none" xmlns="http://www.w3.org/2000/svg">
<g clip-path="url(#clip0)">
<path d="M22 4.17879C21.1902 4.53758 20.3214 4.78091 19.4086 4.88955C20.3407 4.33139 21.0541 3.44607 21.3923 2.39438C20.518 2.91127 19.5529 3.2866 18.5246 3.49007C17.7011 2.61161 16.5298 2.06445 15.2307 2.06445C12.7383 2.06445 10.7174 4.08533 10.7174 6.57636C10.7174 6.92965 10.7573 7.27471 10.8343 7.60468C7.084 7.41631 3.75851 5.61954 1.53281 2.88927C1.14375 3.55467 0.922418 4.32999 0.922418 5.15761C0.922418 6.72346 1.71977 8.10507 2.92956 8.91339C2.18993 8.88866 1.49431 8.68519 0.88532 8.347V8.40336C0.88532 10.5892 2.44153 12.4135 4.505 12.8287C4.12694 12.9304 3.72828 12.9868 3.31585 12.9868C3.02443 12.9868 2.7426 12.9579 2.46627 12.9029C3.04089 14.6969 4.7071 16.0016 6.68124 16.0373C5.1374 17.2471 3.19076 17.9661 1.07642 17.9661C0.712124 17.9661 0.353294 17.9441 0 17.9042C1.99751 19.1869 4.36894 19.9347 6.91771 19.9347C15.2198 19.9347 19.7578 13.0583 19.7578 7.09465L19.7427 6.51039C20.6294 5.87797 21.3964 5.08338 22 4.17879Z" fill="url(#paint0_linear)"/>
</g>
<defs>
<linearGradient id="paint0_linear" x1="3.99996" y1="-0.500487" x2="17" y2="25.4995" gradientUnits="userSpaceOnUse">
<stop stop-color="#26D97A"/>
<stop offset="1" stop-color="#0BD4D2"/>
</linearGradient>
<clipPath id="clip0">
<rect width="22" height="22" fill="white"/>
</clipPath>
</defs>
</svg>
