<svg width="26" height="27" viewBox="0 0 26 27" fill="none" xmlns="http://www.w3.org/2000/svg">
<g clip-path="url(#clip0)">
<path d="M25.8622 19.71C25.8307 19.6395 25.8013 19.5811 25.7741 19.5343C25.323 18.6906 24.4609 17.655 23.1885 16.4273L23.1616 16.3991L23.1481 16.3854L23.1345 16.3712H23.1209C22.5434 15.7995 22.1777 15.4151 22.0245 15.2183C21.7443 14.8434 21.6815 14.464 21.8347 14.0795C21.9429 13.7889 22.3493 13.1754 23.053 12.2381C23.4232 11.7413 23.7163 11.3432 23.9328 11.0432C25.4942 8.88761 26.1712 7.51013 25.9635 6.91027L25.8828 6.77008C25.8286 6.68569 25.6888 6.60849 25.4634 6.53808C25.2375 6.46781 24.9488 6.45619 24.5968 6.50302L20.6982 6.53099C20.635 6.50775 20.5448 6.50991 20.4274 6.53808C20.31 6.56624 20.2513 6.58037 20.2513 6.58037L20.1835 6.61558L20.1296 6.65787C20.0845 6.68584 20.0348 6.73503 19.9806 6.80534C19.9267 6.8754 19.8816 6.95763 19.8456 7.05133C19.4211 8.18533 18.9385 9.23966 18.3969 10.2143C18.063 10.7954 17.7563 11.2991 17.4762 11.7255C17.1965 12.1518 16.9619 12.4659 16.7725 12.6673C16.5829 12.8688 16.4117 13.0302 16.258 13.1522C16.1045 13.2742 15.9873 13.3258 15.9062 13.3069C15.8249 13.2881 15.7483 13.2693 15.6758 13.2506C15.5496 13.1662 15.448 13.0515 15.3714 12.9062C15.2945 12.761 15.2427 12.5781 15.2157 12.3579C15.1887 12.1375 15.1728 11.9479 15.1683 11.7886C15.164 11.6294 15.166 11.4042 15.1751 11.1137C15.1845 10.8231 15.1887 10.6264 15.1887 10.5233C15.1887 10.1671 15.1954 9.78054 15.2088 9.36349C15.2225 8.94645 15.2335 8.61601 15.2428 8.37258C15.252 8.1289 15.2563 7.87109 15.2563 7.5993C15.2563 7.32751 15.2403 7.11436 15.2088 6.95965C15.1777 6.80514 15.13 6.65516 15.0671 6.50976C15.0038 6.36451 14.9111 6.25215 14.7896 6.17239C14.6678 6.09272 14.5163 6.0295 14.3361 5.98252C13.8577 5.87011 13.2486 5.80931 12.5084 5.79985C10.8299 5.78114 9.75136 5.8937 9.27305 6.13738C9.08353 6.24033 8.91204 6.38101 8.7587 6.55895C8.59621 6.76521 8.57355 6.87777 8.69085 6.89628C9.23242 6.98053 9.61581 7.18206 9.84145 7.50068L9.92277 7.66951C9.98602 7.79133 10.0492 8.00699 10.1124 8.3162C10.1755 8.62542 10.2162 8.96747 10.2341 9.34217C10.2792 10.0264 10.2792 10.6122 10.2341 11.0994C10.189 11.5869 10.1463 11.9664 10.1055 12.2382C10.0648 12.5099 10.0039 12.7302 9.92277 12.8988C9.84145 13.0675 9.78735 13.1706 9.76023 13.208C9.73316 13.2455 9.71059 13.269 9.69267 13.2783C9.57536 13.325 9.45337 13.3488 9.3271 13.3488C9.20065 13.3488 9.04731 13.2831 8.86685 13.1518C8.68644 13.0205 8.4992 12.8402 8.30513 12.6106C8.11107 12.3809 7.8922 12.0599 7.64845 11.6476C7.40488 11.2353 7.15216 10.748 6.89043 10.1857L6.67389 9.77788C6.53852 9.51554 6.35361 9.13355 6.11896 8.63226C5.88416 8.13077 5.67663 7.64568 5.49622 7.17708C5.4241 6.98028 5.31576 6.83045 5.17138 6.72735L5.10363 6.68505C5.05858 6.64763 4.98628 6.60789 4.88708 6.56555C4.78775 6.52325 4.6841 6.49292 4.57572 6.47426L0.866543 6.50223C0.487514 6.50223 0.230339 6.5914 0.0949234 6.76949L0.0407289 6.85374C0.0136553 6.90066 0 6.9756 0 7.07876C0 7.18186 0.0270736 7.3084 0.0812681 7.45823C0.622739 8.77978 1.21158 10.0543 1.84778 11.282C2.48399 12.5097 3.03684 13.4986 3.506 14.2479C3.97526 14.9978 4.45358 15.7055 4.94095 16.3707C5.42832 17.0361 5.75093 17.4626 5.90877 17.6499C6.0668 17.8376 6.19093 17.978 6.28116 18.0717L6.61965 18.409C6.83624 18.634 7.15429 18.9034 7.57396 19.2173C7.99372 19.5314 8.45842 19.8406 8.96832 20.1454C9.4783 20.4498 10.0716 20.6981 10.7485 20.8902C11.4254 21.0825 12.0841 21.1596 12.725 21.1224H14.2818C14.5975 21.0941 14.8367 20.991 14.9993 20.813L15.0531 20.7426C15.0894 20.6866 15.1233 20.5997 15.1546 20.4828C15.1862 20.3657 15.202 20.2366 15.202 20.0962C15.1927 19.6933 15.2223 19.3302 15.2898 19.0069C15.3572 18.6837 15.4342 18.44 15.5202 18.2759C15.6061 18.1119 15.7031 17.9736 15.8111 17.8614C15.9193 17.749 15.9964 17.6809 16.0416 17.6575C16.0866 17.6339 16.1225 17.6179 16.1495 17.6083C16.3661 17.5333 16.621 17.6059 16.9146 17.8264C17.208 18.0466 17.4831 18.3185 17.7405 18.6417C17.9977 18.9652 18.3067 19.3282 18.6677 19.7311C19.0288 20.1341 19.3446 20.4338 19.6152 20.6308L19.8859 20.7995C20.0666 20.9121 20.3013 21.0152 20.5901 21.1089C20.8785 21.2026 21.1311 21.226 21.348 21.1792L24.8134 21.123C25.1561 21.123 25.4228 21.0641 25.612 20.9472C25.8016 20.83 25.9142 20.701 25.9505 20.5606C25.9867 20.4201 25.9887 20.2606 25.9574 20.0824C25.9253 19.9046 25.8937 19.7803 25.8622 19.71Z" fill="url(#paint0_linear)"/>
</g>
<defs>
<linearGradient id="paint0_linear" x1="2.5" y1="9.00024" x2="26" y2="26.0002" gradientUnits="userSpaceOnUse">
<stop stop-color="#26D97A"/>
<stop offset="1" stop-color="#0BD4D2"/>
</linearGradient>
<clipPath id="clip0">
<rect width="26" height="27" fill="white"/>
</clipPath>
</defs>
</svg>
