<svg width="37" height="37" viewBox="0 0 37 37" fill="none" xmlns="http://www.w3.org/2000/svg">
<path d="M36.8059 17.7515L29.0975 3.87649C28.964 3.63616 28.7687 3.4359 28.5317 3.29647C28.2948 3.15704 28.0249 3.08351 27.7499 3.0835H9.24993C8.97501 3.08351 8.70508 3.15704 8.46814 3.29647C8.23119 3.4359 8.03584 3.63616 7.90233 3.87649L0.193992 17.7515C0.0667649 17.9805 0 18.2382 0 18.5002C0 18.7621 0.0667649 19.0198 0.193992 19.2488L7.90233 33.1238C8.03584 33.3642 8.23119 33.5644 8.46814 33.7039C8.70508 33.8433 8.97501 33.9168 9.24993 33.9168H27.7499C28.0249 33.9168 28.2948 33.8433 28.5317 33.7039C28.7687 33.5644 28.964 33.3642 29.0975 33.1238L36.8059 19.2488C36.9331 19.0198 36.9999 18.7621 36.9999 18.5002C36.9999 18.2382 36.9331 17.9805 36.8059 17.7515ZM26.8429 30.8335H10.157L3.30527 18.5002L10.157 6.16683H26.8429L33.6946 18.5002L26.8429 30.8335Z" fill="#FF1F00"/>
<path d="M11.0643 7.7085L5.06836 18.5002L11.0635 29.2918H25.9352L31.9319 18.5002L25.9367 7.7085H11.0643ZM20.0418 26.2085H16.9585V23.1252H20.0418V26.2085ZM20.0418 20.0418H16.9585V10.7918H20.0418V20.0418Z" fill="#FF1F00"/>
</svg>
